<?xml version="1.0" encoding="UTF-8" standalone="no"?>
<svg
   xmlns:dc="http://purl.org/dc/elements/1.1/"
   xmlns:cc="http://creativecommons.org/ns#"
   xmlns:rdf="http://www.w3.org/1999/02/22-rdf-syntax-ns#"
   xmlns:svg="http://www.w3.org/2000/svg"
   xmlns="http://www.w3.org/2000/svg"
   xmlns:sodipodi="http://sodipodi.sourceforge.net/DTD/sodipodi-0.dtd"
   xmlns:inkscape="http://www.inkscape.org/namespaces/inkscape"
   viewBox="0 0 612 612"
   version="1.1"
   id="svg8"
   sodipodi:docname="bootstrap-solid.svg"
   inkscape:version="0.92.4 (unknown)">
  <metadata
     id="metadata14">
    <rdf:RDF>
      <cc:Work
         rdf:about="">
        <dc:format>image/svg+xml</dc:format>
        <dc:type
           rdf:resource="http://purl.org/dc/dcmitype/StillImage" />
      </cc:Work>
    </rdf:RDF>
  </metadata>
  <defs
     id="defs12" />
  <sodipodi:namedview
     pagecolor="#ffffff"
     bordercolor="#666666"
     borderopacity="1"
     objecttolerance="10"
     gridtolerance="10"
     guidetolerance="10"
     inkscape:pageopacity="0"
     inkscape:pageshadow="2"
     inkscape:window-width="1920"
     inkscape:window-height="1172"
     id="namedview10"
     showgrid="false"
     inkscape:zoom="0.79247892"
     inkscape:cx="133.22349"
     inkscape:cy="276.17797"
     inkscape:window-x="0"
     inkscape:window-y="0"
     inkscape:window-maximized="1"
     inkscape:current-layer="svg8" />
  <g
     sodipodi:docname="twitter_bootstrap_logo.svg"
     inkscape:version="0.48.1 r9760"
     id="g6">
    <path
       fill="#563D7C"
       d="M612 510c0 56.1-45.9 102-102 102H102C45.9 612 0 566.1 0 510V102C0 45.9 45.9 0 102 0h408c56.1 0 102 45.9 102 102v408z"
       id="path2" />
    <path
       fill="#FFF"
       d="M166.3 133h173.5c32 0 57.7 7.3 77 22s29 36.8 29 66.5c0 18-4.4 33.4-13.2 46.2-8.8 12.8-21.4 22.8-37.8 29.8v1c22 4.7 38.7 15.1 50 31.2 11.3 16.2 17 36.4 17 60.8 0 14-2.5 27.1-7.5 39.2-5 12.2-12.8 22.7-23.5 31.5s-24.3 15.8-41 21-36.5 7.8-59.5 7.8h-164V133zm62.5 149.5h102c15 0 27.5-4.2 37.5-12.8s15-20.8 15-36.8c0-18-4.5-30.7-13.5-38s-22-11-39-11h-102v98.6zm0 156.5h110.5c19 0 33.8-4.9 44.2-14.8 10.5-9.8 15.8-23.8 15.8-41.8 0-17.7-5.2-31.2-15.8-40.8s-25.2-14.2-44.2-14.2H228.8V439z"
       id="path4" />
  </g>
  <path
     style="fill:#0097fe;fill-opacity:1;stroke-width:1.26186323"
     d="M 82.43259,609.60568 C 62.99678,605.72115 45.217091,595.88593 30.255456,580.74278 12.771167,563.04636 3.6628796,543.56365 1.1639005,518.51569 0.31913731,510.04838 0.00276701,433.0097 0.25300041,296.70427 L 0.63639181,87.865913 3.4347604,77.771007 C 4.973863,72.218809 8.9155344,62.281636 12.19403,55.688401 17.279005,45.462236 20.019459,41.825057 30.84352,30.936469 42.300624,19.411064 44.816723,17.553678 56.768127,11.798914 81.78132,-0.24527759 58.223766,0.79735125 305.34164,0.79735125 c 247.1271,0 226.46575,-0.89221978 249.6373,10.78009475 26.69986,13.449654 45.82047,37.308186 53.55419,66.824493 l 2.81034,10.725837 V 306.16825 523.20872 l -2.84686,10.6809 c -9.23383,34.64378 -32.91006,60.28381 -66.89722,72.44594 l -11.01517,3.94172 -221.45699,0.18762 C 187.32588,610.56812 85.313293,610.18143 82.43259,609.60568 Z M 365.91107,488.1313 c 18.58481,-3.19439 29.6859,-6.69684 45.28012,-14.2861 12.61772,-6.14069 15.7048,-8.32118 25.38674,-17.93139 8.63805,-8.57403 12.00392,-12.99641 15.56032,-20.44452 7.67734,-16.07854 9.04449,-23.13673 9.03578,-46.649 -0.009,-24.13043 -2.07778,-33.71921 -10.95792,-50.78796 -10.2986,-19.79521 -25.76744,-31.42171 -52.75846,-39.65363 -1.12578,-0.34335 1.68657,-2.43932 6.94025,-5.17236 12.08292,-6.28572 27.84138,-21.9878 33.21491,-33.0961 6.30967,-13.04346 8.28511,-22.5953 8.22055,-39.74869 -0.10208,-27.11796 -5.99738,-43.04675 -21.75616,-58.78391 -10.67192,-10.65728 -20.99267,-16.98323 -35.76611,-21.9223 -19.80851,-6.62238 -26.35641,-6.97777 -128.71199,-6.98584 l -94.32428,-0.007 v 178.34333 c 0,98.08884 0.41972,178.76306 0.93272,179.27606 0.513,0.513 42.95892,0.70268 94.32427,0.42151 78.99836,-0.43241 95.23907,-0.82875 105.37926,-2.57166 z"
     id="path4628"
     inkscape:connector-curvature="0" />
  <path
     style="fill:#0097fe;fill-opacity:1;stroke-width:1.26186323"
     d="m 229.62984,232.95919 v -48.69813 l 58.99211,0.43381 c 65.22485,0.47964 65.64756,0.52761 78.1003,8.86385 4.72607,3.16378 7.11048,6.05918 10.53536,12.79309 4.393,8.63743 4.42675,8.82987 4.42675,25.23727 0,15.54564 -0.21067,16.96245 -3.52595,23.71357 -4.48293,9.12889 -14.981,18.83402 -24.55472,22.70006 -7.17061,2.89561 -7.90251,2.93232 -65.61267,3.29144 l -58.36118,0.36317 z"
     id="path4630"
     inkscape:connector-curvature="0" />
  <path
     style="fill:#0000ff;fill-opacity:1;stroke-width:1.26186323"
     d="m 229.62984,383.1419 v -54.89105 h 60.50733 c 40.20204,0 62.75133,0.47863 67.19422,1.42625 26.43616,5.63856 41.43688,24.93323 41.36947,53.21145 -0.0223,9.36598 -2.76543,21.73525 -6.40022,28.86003 -5.91488,11.59413 -20.21965,21.77017 -34.96925,24.87621 -4.38663,0.92376 -27.5012,1.40816 -67.19422,1.40816 h -60.50733 z"
     id="path4632"
     inkscape:connector-curvature="0" />
  <path
     style="fill:#0000ff;fill-opacity:1;stroke-width:1.26186323"
     d="M 75.0516,607.1677 C 64.137653,603.87276 56.479103,600.31571 48.228322,594.70951 26.243033,579.77107 12.453673,561.27419 4.8022324,536.45828 L 1.8842239,526.99431 1.5339017,306.79918 1.1835797,86.60405 4.4143322,76.509144 C 6.1912459,70.956946 10.009131,61.587611 12.89852,55.688401 17.294143,46.713947 20.324884,42.773844 31.45942,31.558386 43.481479,19.448955 46.046695,17.525155 58.016447,11.641779 65.741983,7.8445218 74.685648,4.4893472 79.468122,3.5942822 91.625861,1.3188982 519.10467,1.3810826 532.23992,3.6601464 c 15.2276,2.6421019 34.9032,13.7806166 48.68166,27.5590816 13.17813,13.178123 21.79612,28.19479 27.12409,47.2632 l 2.66686,9.544465 V 306.49185 524.95681 l -4.46405,13.63738 c -5.94108,18.14958 -12.54965,28.98168 -25.70909,42.13977 -11.93991,11.9387 -20.62035,17.55541 -37.67942,24.38062 l -11.32679,4.53177 -224.45519,-0.0964 C 94.198331,609.45843 82.23232,609.33558 75.0516,607.1677 Z M 372.22039,487.52546 c 15.76343,-3.35678 25.37162,-6.68021 40.17082,-13.89494 22.4598,-10.94933 39.35239,-30.55134 46.44518,-53.89458 3.28998,-10.82775 3.34708,-49.29049 0.0909,-61.20037 -7.45573,-27.26986 -23.8739,-46.04458 -49.22877,-56.29477 -5.41298,-2.18831 -10.13133,-4.26829 -10.48524,-4.62219 -0.3539,-0.35389 2.65532,-2.50929 6.68713,-4.78976 10.29064,-5.82058 26.88883,-22.677 31.66105,-32.15365 6.94928,-13.79981 8.40519,-20.8241 8.3558,-40.31365 -0.0732,-28.86602 -5.14397,-42.2508 -22.52574,-59.45841 -16.0952,-15.9339 -34.71469,-24.22056 -60.63505,-26.98579 -6.24623,-0.66636 -53.23486,-1.2214 -104.41919,-1.23343 l -93.06242,-0.0219 v 179.30191 179.30191 l 97.47893,-0.59384 c 91.76801,-0.55904 98.18125,-0.74338 109.46664,-3.14658 z"
     id="path4634"
     inkscape:connector-curvature="0" />
  <path
     style="fill:#0000bf;fill-opacity:1;stroke-width:1.26186323"
     d="m 229.62984,232.91514 v -48.60228 l 47.63534,0.69236 c 71.15949,1.03427 73.91072,1.22197 83.01195,5.66317 9.08357,4.43259 11.7772,7.124 16.90112,16.8872 3.71144,7.07186 3.87518,8.03541 3.87518,22.80422 0,18.62212 -1.74044,24.67905 -9.60487,33.4262 -7.48232,8.32214 -15.74639,13.59851 -23.63742,15.09182 -3.57852,0.67721 -31.63325,1.54816 -62.34385,1.93544 l -55.83745,0.70415 z"
     id="path4636"
     inkscape:connector-curvature="0" />
  <path
     style="fill:#0000bf;fill-opacity:1;stroke-width:1.26186323"
     d="m 128.68079,608.4301 -52.367326,-0.67654 -10.26112,-4.13522 C 42.026688,593.93603 19.326209,571.69901 9.7301198,548.44599 2.2018645,530.2037 2.7760406,547.80125 1.8867969,308.06104 L 1.0700499,87.865913 5.6800936,74.616349 C 12.771891,54.234066 16.720781,47.777962 31.278799,32.764613 44.936268,18.679978 51.609007,14.226927 70.237394,6.7655998 L 78.83719,3.3210777 288.30648,2.9523551 C 403.51459,2.7495577 506.97287,3.0851894 518.21376,3.6982033 l 20.43799,1.1145707 13.00138,6.510482 c 28.2299,14.136197 44.98583,33.698589 54.80739,63.987091 l 4.25201,13.112704 V 305.90232 c 0,195.35252 -0.20473,218.17659 -2.01238,224.33309 -11.06906,37.69922 -32.48118,61.04971 -69.81591,76.13615 l -8.1042,3.27479 -174.86597,-0.26985 C 259.7378,609.22808 157.48281,608.8022 128.68079,608.4301 Z M 277.58065,490.50862 c 90.78124,-0.58745 92.23349,-0.68027 112.26978,-7.17579 4.53099,-1.46888 14.05681,-5.49094 21.1685,-8.9379 27.5568,-13.35649 46.36896,-37.98116 49.73662,-65.10403 1.7176,-13.83339 0.58882,-42.67494 -2.05535,-52.51683 -3.48433,-12.96898 -11.68497,-26.97389 -21.64908,-36.97189 -7.60119,-7.62703 -11.29654,-10.16102 -23.09857,-15.83919 l -14.04974,-6.75957 8.79856,-6.01178 c 10.04434,-6.863 23.22156,-20.28699 28.12154,-28.64817 7.41648,-12.65524 9.07139,-20.26421 9.03711,-41.55099 -0.0472,-29.34041 -3.71695,-40.26708 -19.10627,-56.88896 -13.05095,-14.09622 -28.5276,-23.00462 -49.48591,-28.48422 -7.31126,-1.91156 -19.26921,-2.19669 -110.09757,-2.62526 l -101.89545,-0.48079 v 179.59449 179.59448 l 13.56503,-0.32121 c 7.46077,-0.17666 51.89412,-0.56924 98.7408,-0.87239 z"
     id="path4638"
     inkscape:connector-curvature="0" />
  <path
     style="fill:#2d63bf;fill-opacity:1;stroke-width:1.26186323"
     d="m 229.62984,382.9404 v -55.09255 l 62.90685,0.75626 c 59.43048,0.71447 63.34103,0.90253 70.76366,3.40303 9.9383,3.34797 15.84955,7.08042 22.00606,13.89495 10.62743,11.76328 14.86874,29.20989 11.62207,47.80727 -3.39338,19.43774 -11.52908,30.42291 -28.49368,38.47338 -7.97778,3.78582 -8.85787,3.91614 -32.17751,4.76479 -13.18648,0.47988 -42.57211,0.92042 -65.30143,0.97897 l -41.32602,0.10645 z"
     id="path4640"
     inkscape:connector-curvature="0" />
  <path
     style="fill:#2d63bf;fill-opacity:1;stroke-width:1.26186323"
     d="m 229.62984,232.84006 v -48.18148 l 41.95696,0.58127 c 61.40593,0.85071 79.64358,1.98696 87.73045,5.46584 7.57684,3.25947 13.63755,9.43105 18.02424,18.35396 2.71998,5.53266 3.07376,7.92911 3.06571,20.76587 -0.0126,19.50816 -1.67896,24.84563 -10.80498,34.60137 -11.35304,12.13644 -15.55576,13.70355 -39.65425,14.7863 -11.1044,0.49893 -38.21868,1.10991 -60.25397,1.35775 l -40.06416,0.4506 z"
     id="path4642"
     inkscape:connector-curvature="0" />
  <path
     style="fill:#2d63bf;fill-opacity:1;stroke-width:1.26186323"
     d="M 181.67904,608.40412 C 88.322892,607.80779 75.730562,607.49706 71.199331,605.67782 41.610124,593.79804 20.288713,573.31516 8.8100533,545.74219 5.0115488,536.61777 4.7767636,535.05299 3.7510421,512.02513 3.1594393,498.74341 2.3190202,397.86739 1.8834439,287.85622 L 1.0914869,87.835878 5.0824894,76.494127 C 12.548864,55.275956 16.941717,47.942629 31.308404,32.713183 41.401884,22.013562 54.640115,13.042673 68.352619,7.6101646 L 78.83719,3.4564722 270.6404,2.9999358 c 105.49176,-0.2510951 208.83836,0.034439 229.6591,0.6345185 l 37.8559,1.0910552 12.88992,6.6478265 c 23.84433,12.29744 37.25632,25.227757 47.72739,46.013311 3.09272,6.13922 7.06978,15.904969 8.83787,21.701663 l 3.21474,10.539444 -0.4006,218.683276 -0.4006,218.68328 -2.88173,8.01183 c -1.58495,4.40652 -4.2071,11.00873 -5.82699,14.6716 -10.53214,23.81504 -30.95056,42.93371 -58.71173,54.9744 l -11.51474,4.99421 -122.02216,-0.28459 C 341.95459,609.20523 239.63011,608.7743 181.67904,608.40412 Z M 336.25729,489.8539 c 32.63077,-1.05202 36.19843,-1.39422 46.66233,-4.47561 40.49577,-11.92514 66.31322,-34.09365 75.71229,-65.01142 2.84587,-9.36134 3.89418,-35.44421 2.05227,-51.06204 -2.35434,-19.96275 -9.88673,-35.48751 -24.28493,-50.05292 -6.80487,-6.88389 -11.00467,-9.76764 -22.36364,-15.3558 l -13.98537,-6.88024 6.79422,-4.51111 c 9.942,-6.60111 22.65296,-18.93749 28.43662,-27.59859 8.34763,-12.50068 10.41894,-21.13899 10.37841,-43.28276 -0.0584,-31.90503 -3.75984,-42.1656 -21.68517,-60.1125 -9.37187,-9.38314 -12.72749,-11.79891 -24.11548,-17.36115 -22.42334,-10.95227 -16.97428,-10.49465 -132.68857,-11.1433 l -101.89545,-0.57119 -5.4e-4,179.61344 -5.3e-4,179.61343 67.82568,-0.33456 c 37.30413,-0.184 83.72516,-0.84716 103.15786,-1.47368 z"
     id="path4644"
     inkscape:connector-curvature="0" />
</svg>
